<svg width="100" height="100" viewBox="0 0 100 100" fill="none" xmlns="http://www.w3.org/2000/svg">
<path d="M86.2902 15.2272C86.2902 15.2272 94.3846 12.071 93.71 19.7362C93.4852 22.8925 91.4617 33.9393 89.8877 45.8881L84.4915 81.2833C84.4915 81.2833 84.0419 86.4685 79.9946 87.3704C75.9473 88.272 69.8767 84.2141 68.7523 83.3122C67.8529 82.636 51.8892 72.4908 46.2679 67.531C44.694 66.1783 42.8952 63.4729 46.4927 60.3166L70.1015 37.772C72.7996 35.0666 75.4977 28.7541 64.2554 36.4193L32.7773 57.8368C32.7773 57.8368 29.1798 60.0912 22.4346 58.0622L7.81963 53.5533C7.81963 53.5533 2.42336 50.1716 11.642 46.7897C34.1265 36.1937 61.7823 25.3722 86.2902 15.2272Z" fill="black"/>
</svg>
